<?xml version="1.0" standalone="no"?>
<!DOCTYPE svg PUBLIC "-//W3C//DTD SVG 20010904//EN"
 "http://www.w3.org/TR/2001/REC-SVG-20010904/DTD/svg10.dtd">
<svg version="1.0" xmlns="http://www.w3.org/2000/svg"
 width="32.000000pt" height="32.000000pt" viewBox="0 0 32.000000 32.000000"
 preserveAspectRatio="xMidYMid meet">

<g transform="translate(0.000000,32.000000) scale(0.100000,-0.100000)"
fill="#000000" stroke="none">
<path d="M219 293 c-1 -16 -2 -38 -2 -50 -1 -32 -12 -29 -27 6 -6 16 -19 32
-27 35 -22 9 -63 -4 -63 -20 0 -8 6 -11 15 -8 8 4 15 1 15 -5 0 -6 -9 -11 -20
-11 -11 0 -20 -3 -21 -7 0 -5 -2 -18 -5 -29 -5 -29 23 -54 37 -33 7 10 8 6 5
-15 -5 -27 -5 -28 14 -11 11 10 20 13 20 7 0 -19 -64 -72 -72 -60 -3 7 -4 16
-1 21 3 5 0 8 -6 6 -9 -3 -47 -91 -51 -116 0 -2 58 -3 128 -3 167 0 162 -5
162 156 0 140 -10 164 -66 164 -30 0 -34 -3 -35 -27z"/>
</g>
</svg>
